<?xml version="1.0" standalone="no"?>
<!DOCTYPE svg PUBLIC "-//W3C//DTD SVG 20010904//EN"
 "http://www.w3.org/TR/2001/REC-SVG-20010904/DTD/svg10.dtd">
<svg version="1.0" xmlns="http://www.w3.org/2000/svg"
 width="260.000000pt" height="260.000000pt" viewBox="0 0 260.000000 260.000000"
 preserveAspectRatio="xMidYMid meet">
<metadata>
Created by potrace 1.11, written by Peter Selinger 2001-2013
</metadata>
<g transform="translate(0.000000,260.000000) scale(0.100000,-0.100000)"
fill="#000000" stroke="none">
<path d="M1284 2487 c-11 -23 -111 -214 -194 -372 -26 -49 -87 -166 -135 -260
-48 -93 -91 -174 -96 -180 -5 -5 -9 -15 -9 -23 0 -16 121 -232 130 -232 3 1
22 35 43 78 43 88 167 327 234 450 l44 83 46 -88 c42 -81 69 -134 218 -418 29
-55 87 -167 130 -250 43 -82 101 -195 130 -250 29 -55 75 -143 102 -195 28
-52 96 -183 151 -291 l102 -196 -495 1 -495 0 -41 80 c-54 105 -169 328 -263
508 -40 79 -102 198 -136 266 -35 67 -66 122 -70 122 -4 0 -30 -46 -59 -102
-28 -57 -80 -157 -114 -223 -35 -66 -103 -196 -152 -290 -48 -93 -107 -206
-130 -250 -116 -219 -185 -353 -185 -358 0 -3 567 -6 1260 -6 693 0 1260 3
1260 6 0 3 -29 60 -64 127 -35 66 -92 175 -126 241 -34 66 -88 170 -120 230
-73 141 -169 325 -255 490 -37 72 -89 171 -115 220 -26 50 -77 146 -112 215
-36 69 -101 193 -144 275 -172 329 -206 394 -261 503 -32 61 -60 112 -63 112
-3 0 -10 -10 -16 -23z"/>
<path d="M1100 1303 l0 -78 165 1 c91 0 165 -1 165 -4 0 -2 -76 -121 -170
-264 l-170 -260 0 -69 0 -68 143 -3 c78 -2 196 -1 262 2 l120 5 0 73 1 72
-173 0 c-95 0 -173 3 -173 6 0 7 20 45 32 58 9 11 215 335 265 416 22 36 28
59 30 118 l2 72 -249 0 -250 0 0 -77z"/>
</g>
</svg>
